<svg xmlns="http://www.w3.org/2000/svg" viewBox="0 0 800 600" width="800" height="600" role="img" aria-label="MyoWare 2.0 muscle sensor placement on forearm">
  <rect width="800" height="600" fill="oklch(0.21 0.022 245)"/>
  <defs><pattern id="g6" width="40" height="40" patternUnits="userSpaceOnUse"><path d="M40 0H0V40" fill="none" stroke="oklch(0.74 0.13 215 / 0.10)" stroke-width="1"/></pattern></defs>
  <rect width="800" height="600" fill="url(#g6)"/>
  <!-- forearm -->
  <g stroke="oklch(0.74 0.13 215 / 0.6)" fill="oklch(0.74 0.13 215 / 0.06)" stroke-width="2">
    <path d="M300 120 h200 c20 0 30 20 30 60 v220 c0 40 -20 60 -50 60 h-160 c-30 0 -50 -20 -50 -60 v-220 c0 -40 10 -60 30 -60 z"/>
  </g>
  <!-- sensor module -->
  <g stroke="oklch(0.74 0.13 215)" fill="oklch(0.74 0.13 215 / 0.18)" stroke-width="2">
    <rect x="350" y="260" width="100" height="60" rx="6"/>
  </g>
  <g fill="oklch(0.95 0.008 240 / 0.7)">
    <circle cx="365" cy="278" r="5"/><circle cx="365" cy="302" r="5"/>
    <circle cx="435" cy="278" r="5"/><circle cx="435" cy="302" r="5"/>
  </g>
  <text x="400" y="294" text-anchor="middle" font-family="ui-monospace, monospace" font-size="11" fill="oklch(0.74 0.13 215 / 0.9)">MyoWare 2.0</text>
  <!-- lead wires -->
  <g stroke="oklch(0.95 0.008 240 / 0.5)" fill="none" stroke-width="1.5" stroke-dasharray="4 3">
    <path d="M400 320 v120 h-80 v80"/>
    <path d="M380 320 v100 h120 v100"/>
  </g>
  <text x="400" y="570" text-anchor="middle" font-family="ui-monospace, monospace" font-size="11" fill="oklch(0.68 0.015 240)" letter-spacing="3">FIG. 06 — EMG SENSOR PLACEMENT</text>
</svg>
